<svg xmlns="http://www.w3.org/2000/svg" xmlns:xlink="http://www.w3.org/1999/xlink" width="500" zoomAndPan="magnify" viewBox="0 0 375 37.5" height="50" preserveAspectRatio="xMidYMid meet" version="1.2"><defs><clipPath id="90d46e0a17"><path d="M 11.660156 1.851562 L 42 1.851562 L 42 35.15625 L 11.660156 35.15625 Z M 11.660156 1.851562 "/></clipPath></defs><g id="ba93bb0384"><path style=" stroke:none;fill-rule:nonzero;fill:#fbc197;fill-opacity:1;" d="M 41.425781 32.9375 L 41.425781 22.933594 C 41.425781 21.332031 40.273438 19.953125 38.675781 19.660156 L 32.445312 18.503906 L 32.445312 13.507812 L 25.707031 13.507812 L 25.707031 18.503906 C 25.707031 18.503906 22.113281 19.171875 19.472656 19.660156 C 17.882812 19.953125 16.726562 21.332031 16.726562 22.933594 C 16.726562 25.71875 16.726562 32.9375 16.726562 32.9375 "/><path style=" stroke:none;fill-rule:nonzero;fill:#f03b3d;fill-opacity:1;" d="M 38.675781 19.660156 L 32.445312 18.503906 L 30.199219 20.722656 L 29.078125 23.5 L 27.953125 20.722656 L 25.707031 18.503906 C 25.707031 18.503906 22.113281 19.171875 19.472656 19.660156 C 17.882812 19.953125 16.726562 21.332031 16.726562 22.933594 C 16.726562 25.71875 16.726562 32.9375 16.726562 32.9375 L 41.425781 32.9375 L 41.425781 22.933594 C 41.425781 21.332031 40.273438 19.953125 38.675781 19.660156 "/><path style=" stroke:none;fill-rule:nonzero;fill:#f14c52;fill-opacity:1;" d="M 30.199219 25.164062 L 30.199219 22.945312 L 29.300781 22.945312 L 29.078125 23.5 L 28.851562 22.945312 L 27.953125 22.945312 L 27.953125 25.164062 L 30.199219 25.164062 "/><path style=" stroke:none;fill-rule:nonzero;fill:#f14c52;fill-opacity:1;" d="M 21.21875 20.722656 L 21.21875 19.335938 C 20.621094 19.445312 20.027344 19.558594 19.472656 19.660156 C 19.300781 19.691406 19.136719 19.742188 18.972656 19.800781 L 18.972656 20.722656 L 21.21875 20.722656 "/><path style=" stroke:none;fill-rule:nonzero;fill:#f14c52;fill-opacity:1;" d="M 34.6875 25.164062 L 34.6875 22.945312 L 32.445312 22.945312 L 32.445312 25.164062 L 34.6875 25.164062 "/><path style=" stroke:none;fill-rule:nonzero;fill:#f14c52;fill-opacity:1;" d="M 32.445312 27.386719 L 32.445312 29.605469 L 34.6875 29.605469 L 34.6875 27.386719 L 32.445312 27.386719 "/><path style=" stroke:none;fill-rule:nonzero;fill:#f14c52;fill-opacity:1;" d="M 25.707031 20.722656 L 25.707031 18.503906 C 25.707031 18.503906 24.75 18.679688 23.464844 18.917969 L 23.464844 20.722656 L 25.707031 20.722656 "/><path style=" stroke:none;fill-rule:nonzero;fill:#f14c52;fill-opacity:1;" d="M 27.953125 27.386719 L 27.953125 29.605469 L 30.199219 29.605469 L 30.199219 27.386719 L 27.953125 27.386719 "/><path style=" stroke:none;fill-rule:nonzero;fill:#f14c52;fill-opacity:1;" d="M 36.933594 29.605469 L 39.179688 29.605469 L 39.179688 27.386719 L 36.933594 27.386719 L 36.933594 29.605469 "/><path style=" stroke:none;fill-rule:nonzero;fill:#f14c52;fill-opacity:1;" d="M 21.21875 27.386719 L 18.972656 27.386719 L 18.972656 29.605469 L 21.21875 29.605469 L 21.21875 27.386719 "/><path style=" stroke:none;fill-rule:nonzero;fill:#f14c52;fill-opacity:1;" d="M 23.464844 27.386719 L 23.464844 29.605469 L 25.707031 29.605469 L 25.707031 27.386719 L 23.464844 27.386719 "/><path style=" stroke:none;fill-rule:nonzero;fill:#f14c52;fill-opacity:1;" d="M 36.933594 25.164062 L 39.179688 25.164062 L 39.179688 22.945312 L 36.933594 22.945312 L 36.933594 25.164062 "/><path style=" stroke:none;fill-rule:nonzero;fill:#f14c52;fill-opacity:1;" d="M 34.6875 20.722656 L 34.6875 18.917969 L 32.445312 18.503906 L 32.445312 20.722656 L 34.6875 20.722656 "/><path style=" stroke:none;fill-rule:nonzero;fill:#f14c52;fill-opacity:1;" d="M 39.179688 20.722656 L 39.179688 19.796875 C 39.015625 19.742188 38.851562 19.691406 38.675781 19.660156 L 36.933594 19.335938 L 36.933594 20.722656 L 39.179688 20.722656 "/><path style=" stroke:none;fill-rule:nonzero;fill:#f14c52;fill-opacity:1;" d="M 23.464844 25.164062 L 25.707031 25.164062 L 25.707031 22.945312 L 23.464844 22.945312 L 23.464844 25.164062 "/><path style=" stroke:none;fill-rule:nonzero;fill:#f14c52;fill-opacity:1;" d="M 27.953125 31.824219 L 27.953125 32.9375 L 30.199219 32.9375 L 30.199219 31.824219 L 27.953125 31.824219 "/><path style=" stroke:none;fill-rule:nonzero;fill:#f14c52;fill-opacity:1;" d="M 23.464844 31.824219 L 23.464844 32.9375 L 25.707031 32.9375 L 25.707031 31.824219 L 23.464844 31.824219 "/><path style=" stroke:none;fill-rule:nonzero;fill:#f14c52;fill-opacity:1;" d="M 18.972656 31.824219 L 18.972656 32.9375 L 21.21875 32.9375 L 21.21875 31.824219 L 18.972656 31.824219 "/><path style=" stroke:none;fill-rule:nonzero;fill:#f14c52;fill-opacity:1;" d="M 21.21875 22.945312 L 18.972656 22.945312 L 18.972656 25.164062 L 21.21875 25.164062 L 21.21875 22.945312 "/><path style=" stroke:none;fill-rule:nonzero;fill:#f14c52;fill-opacity:1;" d="M 32.445312 31.824219 L 32.445312 32.9375 L 34.6875 32.9375 L 34.6875 31.824219 L 32.445312 31.824219 "/><path style=" stroke:none;fill-rule:nonzero;fill:#f14c52;fill-opacity:1;" d="M 36.933594 31.824219 L 36.933594 32.9375 L 39.179688 32.9375 L 39.179688 31.824219 L 36.933594 31.824219 "/><path style=" stroke:none;fill-rule:nonzero;fill:#eb3535;fill-opacity:1;" d="M 25.707031 22.945312 L 25.707031 20.722656 L 23.464844 20.722656 L 23.464844 22.945312 L 25.707031 22.945312 "/><path style=" stroke:none;fill-rule:nonzero;fill:#eb3535;fill-opacity:1;" d="M 34.6875 20.722656 L 32.445312 20.722656 L 32.445312 22.945312 L 34.6875 22.945312 L 34.6875 20.722656 "/><path style=" stroke:none;fill-rule:nonzero;fill:#eb3535;fill-opacity:1;" d="M 36.933594 20.722656 L 36.933594 22.945312 L 39.179688 22.945312 L 39.179688 20.722656 L 36.933594 20.722656 "/><path style=" stroke:none;fill-rule:nonzero;fill:#eb3535;fill-opacity:1;" d="M 29.300781 22.945312 L 30.199219 22.945312 L 30.199219 20.722656 L 29.300781 22.945312 "/><path style=" stroke:none;fill-rule:nonzero;fill:#eb3535;fill-opacity:1;" d="M 27.953125 22.945312 L 28.851562 22.945312 L 27.953125 20.722656 L 27.953125 22.945312 "/><path style=" stroke:none;fill-rule:nonzero;fill:#eb3535;fill-opacity:1;" d="M 21.21875 22.945312 L 21.21875 20.722656 L 18.972656 20.722656 L 18.972656 22.945312 L 21.21875 22.945312 "/><path style=" stroke:none;fill-rule:nonzero;fill:#eb3535;fill-opacity:1;" d="M 36.933594 27.386719 L 39.179688 27.386719 L 39.179688 25.164062 L 36.933594 25.164062 L 36.933594 27.386719 "/><path style=" stroke:none;fill-rule:nonzero;fill:#eb3535;fill-opacity:1;" d="M 30.199219 27.386719 L 30.199219 25.164062 L 27.953125 25.164062 L 27.953125 27.386719 L 30.199219 27.386719 "/><path style=" stroke:none;fill-rule:nonzero;fill:#eb3535;fill-opacity:1;" d="M 34.6875 27.386719 L 34.6875 25.164062 L 32.445312 25.164062 L 32.445312 27.386719 L 34.6875 27.386719 "/><path style=" stroke:none;fill-rule:nonzero;fill:#eb3535;fill-opacity:1;" d="M 18.972656 25.164062 L 18.972656 27.386719 L 21.21875 27.386719 L 21.21875 25.164062 L 18.972656 25.164062 "/><path style=" stroke:none;fill-rule:nonzero;fill:#eb3535;fill-opacity:1;" d="M 25.707031 27.386719 L 25.707031 25.164062 L 23.464844 25.164062 L 23.464844 27.386719 L 25.707031 27.386719 "/><path style=" stroke:none;fill-rule:nonzero;fill:#eb3535;fill-opacity:1;" d="M 23.464844 29.605469 L 23.464844 31.824219 L 25.707031 31.824219 L 25.707031 29.605469 L 23.464844 29.605469 "/><path style=" stroke:none;fill-rule:nonzero;fill:#eb3535;fill-opacity:1;" d="M 32.445312 29.605469 L 32.445312 31.824219 L 34.6875 31.824219 L 34.6875 29.605469 L 32.445312 29.605469 "/><path style=" stroke:none;fill-rule:nonzero;fill:#eb3535;fill-opacity:1;" d="M 36.933594 31.824219 L 39.179688 31.824219 L 39.179688 29.605469 L 36.933594 29.605469 L 36.933594 31.824219 "/><path style=" stroke:none;fill-rule:nonzero;fill:#eb3535;fill-opacity:1;" d="M 27.953125 29.605469 L 27.953125 31.824219 L 30.199219 31.824219 L 30.199219 29.605469 L 27.953125 29.605469 "/><path style=" stroke:none;fill-rule:nonzero;fill:#eb3535;fill-opacity:1;" d="M 18.972656 29.605469 L 18.972656 31.824219 L 21.21875 31.824219 L 21.21875 29.605469 L 18.972656 29.605469 "/><path style=" stroke:none;fill-rule:nonzero;fill:#eb3535;fill-opacity:1;" d="M 30.199219 27.386719 L 30.199219 29.605469 L 32.445312 29.605469 L 32.445312 27.386719 L 30.199219 27.386719 "/><path style=" stroke:none;fill-rule:nonzero;fill:#eb3535;fill-opacity:1;" d="M 32.445312 25.164062 L 32.445312 22.945312 L 30.199219 22.945312 L 30.199219 25.164062 L 32.445312 25.164062 "/><path style=" stroke:none;fill-rule:nonzero;fill:#eb3535;fill-opacity:1;" d="M 30.199219 31.824219 L 30.199219 32.9375 L 32.445312 32.9375 L 32.445312 31.824219 L 30.199219 31.824219 "/><path style=" stroke:none;fill-rule:nonzero;fill:#eb3535;fill-opacity:1;" d="M 32.445312 18.503906 L 30.199219 20.722656 L 32.445312 20.722656 Z M 32.445312 18.503906 "/><path style=" stroke:none;fill-rule:nonzero;fill:#eb3535;fill-opacity:1;" d="M 34.6875 25.164062 L 36.933594 25.164062 L 36.933594 22.945312 L 34.6875 22.945312 L 34.6875 25.164062 "/><path style=" stroke:none;fill-rule:nonzero;fill:#eb3535;fill-opacity:1;" d="M 36.933594 20.722656 L 36.933594 19.335938 L 34.6875 18.917969 L 34.6875 20.722656 L 36.933594 20.722656 "/><path style=" stroke:none;fill-rule:nonzero;fill:#eb3535;fill-opacity:1;" d="M 34.6875 31.824219 L 34.6875 32.9375 L 36.933594 32.9375 L 36.933594 31.824219 L 34.6875 31.824219 "/><path style=" stroke:none;fill-rule:nonzero;fill:#eb3535;fill-opacity:1;" d="M 34.6875 29.605469 L 36.933594 29.605469 L 36.933594 27.386719 L 34.6875 27.386719 L 34.6875 29.605469 "/><path style=" stroke:none;fill-rule:nonzero;fill:#eb3535;fill-opacity:1;" d="M 39.179688 22.945312 L 39.179688 25.164062 L 41.425781 25.164062 L 41.425781 22.945312 L 39.179688 22.945312 "/><path style=" stroke:none;fill-rule:nonzero;fill:#eb3535;fill-opacity:1;" d="M 39.179688 32.9375 L 41.425781 32.9375 L 41.425781 31.824219 L 39.179688 31.824219 L 39.179688 32.9375 "/><path style=" stroke:none;fill-rule:nonzero;fill:#eb3535;fill-opacity:1;" d="M 40.566406 20.722656 C 40.195312 20.3125 39.722656 19.988281 39.179688 19.796875 L 39.179688 20.722656 L 40.566406 20.722656 "/><path style=" stroke:none;fill-rule:nonzero;fill:#eb3535;fill-opacity:1;" d="M 39.179688 29.605469 L 41.425781 29.605469 L 41.425781 27.386719 L 39.179688 27.386719 L 39.179688 29.605469 "/><path style=" stroke:none;fill-rule:nonzero;fill:#eb3535;fill-opacity:1;" d="M 25.707031 27.386719 L 25.707031 29.605469 L 27.953125 29.605469 L 27.953125 27.386719 L 25.707031 27.386719 "/><path style=" stroke:none;fill-rule:nonzero;fill:#eb3535;fill-opacity:1;" d="M 25.707031 31.824219 L 25.707031 32.9375 L 27.953125 32.9375 L 27.953125 31.824219 L 25.707031 31.824219 "/><path style=" stroke:none;fill-rule:nonzero;fill:#eb3535;fill-opacity:1;" d="M 27.953125 25.164062 L 27.953125 22.945312 L 25.707031 22.945312 L 25.707031 25.164062 L 27.953125 25.164062 "/><path style=" stroke:none;fill-rule:nonzero;fill:#eb3535;fill-opacity:1;" d="M 27.953125 20.722656 L 25.707031 18.503906 L 25.707031 20.722656 Z M 27.953125 20.722656 "/><path style=" stroke:none;fill-rule:nonzero;fill:#eb3535;fill-opacity:1;" d="M 23.464844 20.722656 L 23.464844 18.917969 C 22.777344 19.046875 22 19.191406 21.21875 19.335938 L 21.21875 20.722656 L 23.464844 20.722656 "/><path style=" stroke:none;fill-rule:nonzero;fill:#eb3535;fill-opacity:1;" d="M 23.464844 25.164062 L 23.464844 22.945312 L 21.21875 22.945312 L 21.21875 25.164062 L 23.464844 25.164062 "/><path style=" stroke:none;fill-rule:nonzero;fill:#eb3535;fill-opacity:1;" d="M 21.21875 31.824219 L 21.21875 32.9375 L 23.464844 32.9375 L 23.464844 31.824219 L 21.21875 31.824219 "/><path style=" stroke:none;fill-rule:nonzero;fill:#eb3535;fill-opacity:1;" d="M 21.21875 27.386719 L 21.21875 29.605469 L 23.464844 29.605469 L 23.464844 27.386719 L 21.21875 27.386719 "/><path style=" stroke:none;fill-rule:nonzero;fill:#eb3535;fill-opacity:1;" d="M 18.972656 22.945312 L 16.726562 22.945312 C 16.726562 23.527344 16.726562 24.304688 16.726562 25.164062 L 18.972656 25.164062 L 18.972656 22.945312 "/><path style=" stroke:none;fill-rule:nonzero;fill:#eb3535;fill-opacity:1;" d="M 16.726562 27.386719 C 16.726562 28.144531 16.726562 28.902344 16.726562 29.605469 L 18.972656 29.605469 L 18.972656 27.386719 L 16.726562 27.386719 "/><path style=" stroke:none;fill-rule:nonzero;fill:#eb3535;fill-opacity:1;" d="M 17.585938 20.722656 L 18.972656 20.722656 L 18.972656 19.800781 C 18.429688 19.988281 17.957031 20.3125 17.585938 20.722656 "/><path style=" stroke:none;fill-rule:nonzero;fill:#eb3535;fill-opacity:1;" d="M 16.726562 31.824219 C 16.726562 32.507812 16.726562 32.9375 16.726562 32.9375 L 18.972656 32.9375 L 18.972656 31.824219 L 16.726562 31.824219 "/><path style=" stroke:none;fill-rule:nonzero;fill:#db302b;fill-opacity:1;" d="M 32.445312 22.945312 L 32.445312 20.722656 L 30.199219 20.722656 L 30.199219 22.945312 L 32.445312 22.945312 "/><path style=" stroke:none;fill-rule:nonzero;fill:#db302b;fill-opacity:1;" d="M 32.445312 27.386719 L 32.445312 25.164062 L 30.199219 25.164062 L 30.199219 27.386719 L 32.445312 27.386719 "/><path style=" stroke:none;fill-rule:nonzero;fill:#db302b;fill-opacity:1;" d="M 30.199219 29.605469 L 30.199219 31.824219 L 32.445312 31.824219 L 32.445312 29.605469 L 30.199219 29.605469 "/><path style=" stroke:none;fill-rule:nonzero;fill:#db302b;fill-opacity:1;" d="M 36.933594 22.945312 L 36.933594 20.722656 L 34.6875 20.722656 L 34.6875 22.945312 L 36.933594 22.945312 "/><path style=" stroke:none;fill-rule:nonzero;fill:#db302b;fill-opacity:1;" d="M 34.6875 27.386719 L 36.933594 27.386719 L 36.933594 25.164062 L 34.6875 25.164062 L 34.6875 27.386719 "/><path style=" stroke:none;fill-rule:nonzero;fill:#db302b;fill-opacity:1;" d="M 34.6875 29.605469 L 34.6875 31.824219 L 36.933594 31.824219 L 36.933594 29.605469 L 34.6875 29.605469 "/><path style=" stroke:none;fill-rule:nonzero;fill:#db302b;fill-opacity:1;" d="M 40.566406 20.722656 L 39.179688 20.722656 L 39.179688 22.945312 L 41.425781 22.945312 L 41.425781 22.933594 C 41.425781 22.09375 41.101562 21.316406 40.566406 20.722656 "/><path style=" stroke:none;fill-rule:nonzero;fill:#db302b;fill-opacity:1;" d="M 39.179688 27.386719 L 41.425781 27.386719 L 41.425781 25.164062 L 39.179688 25.164062 L 39.179688 27.386719 "/><path style=" stroke:none;fill-rule:nonzero;fill:#db302b;fill-opacity:1;" d="M 39.179688 31.824219 L 41.425781 31.824219 L 41.425781 29.605469 L 39.179688 29.605469 L 39.179688 31.824219 "/><path style=" stroke:none;fill-rule:nonzero;fill:#db302b;fill-opacity:1;" d="M 25.707031 22.945312 L 27.953125 22.945312 L 27.953125 20.722656 L 25.707031 20.722656 L 25.707031 22.945312 "/><path style=" stroke:none;fill-rule:nonzero;fill:#db302b;fill-opacity:1;" d="M 27.953125 27.386719 L 27.953125 25.164062 L 25.707031 25.164062 L 25.707031 27.386719 L 27.953125 27.386719 "/><path style=" stroke:none;fill-rule:nonzero;fill:#db302b;fill-opacity:1;" d="M 25.707031 29.605469 L 25.707031 31.824219 L 27.953125 31.824219 L 27.953125 29.605469 L 25.707031 29.605469 "/><path style=" stroke:none;fill-rule:nonzero;fill:#db302b;fill-opacity:1;" d="M 23.464844 22.945312 L 23.464844 20.722656 L 21.21875 20.722656 L 21.21875 22.945312 L 23.464844 22.945312 "/><path style=" stroke:none;fill-rule:nonzero;fill:#db302b;fill-opacity:1;" d="M 23.464844 25.164062 L 21.21875 25.164062 L 21.21875 27.386719 L 23.464844 27.386719 L 23.464844 25.164062 "/><path style=" stroke:none;fill-rule:nonzero;fill:#db302b;fill-opacity:1;" d="M 21.21875 29.605469 L 21.21875 31.824219 L 23.464844 31.824219 L 23.464844 29.605469 L 21.21875 29.605469 "/><path style=" stroke:none;fill-rule:nonzero;fill:#db302b;fill-opacity:1;" d="M 18.972656 20.722656 L 17.585938 20.722656 C 17.050781 21.316406 16.726562 22.09375 16.726562 22.933594 C 16.726562 22.933594 16.726562 22.941406 16.726562 22.945312 L 18.972656 22.945312 L 18.972656 20.722656 "/><path style=" stroke:none;fill-rule:nonzero;fill:#db302b;fill-opacity:1;" d="M 18.972656 25.164062 L 16.726562 25.164062 C 16.726562 25.867188 16.726562 26.625 16.726562 27.386719 L 18.972656 27.386719 L 18.972656 25.164062 "/><path style=" stroke:none;fill-rule:nonzero;fill:#db302b;fill-opacity:1;" d="M 18.972656 29.605469 L 16.726562 29.605469 C 16.726562 30.175781 16.726562 30.710938 16.726562 31.175781 C 16.726562 31.414062 16.726562 31.628906 16.726562 31.824219 L 18.972656 31.824219 L 18.972656 29.605469 "/><path style=" stroke:none;fill-rule:nonzero;fill:#394660;fill-opacity:1;" d="M 34.6875 25.164062 L 34.6875 18.917969 L 32.445312 18.503906 L 32.445312 25.164062 L 25.707031 25.164062 L 25.707031 18.503906 C 25.707031 18.503906 24.75 18.679688 23.464844 18.917969 L 23.464844 25.164062 L 21.78125 31.824219 L 21.78125 34.601562 L 36.375 34.601562 L 36.375 31.824219 L 34.6875 25.164062 "/><path style=" stroke:none;fill-rule:nonzero;fill:#333f56;fill-opacity:1;" d="M 34.6875 23.09375 C 30.5625 29.382812 25.15625 32.558594 21.78125 34.03125 L 21.78125 34.601562 L 36.375 34.601562 L 36.375 31.824219 L 34.6875 25.164062 L 34.6875 23.09375 "/><path style=" stroke:none;fill-rule:nonzero;fill:#f14c52;fill-opacity:1;" d="M 27.953125 20.722656 L 25.707031 18.503906 L 25.707031 22.390625 Z M 27.953125 20.722656 "/><path style=" stroke:none;fill-rule:nonzero;fill:#f14c52;fill-opacity:1;" d="M 30.199219 20.722656 L 32.445312 18.503906 L 32.445312 22.390625 Z M 30.199219 20.722656 "/><path style=" stroke:none;fill-rule:nonzero;fill:#fab683;fill-opacity:1;" d="M 34.6875 11.285156 L 34.128906 11.285156 L 34.128906 7.957031 L 34.6875 7.957031 C 35.617188 7.957031 36.375 8.703125 36.375 9.621094 C 36.375 10.542969 35.617188 11.285156 34.6875 11.285156 "/><path style=" stroke:none;fill-rule:nonzero;fill:#fab683;fill-opacity:1;" d="M 24.023438 7.957031 L 23.464844 7.957031 C 22.539062 7.957031 21.78125 8.703125 21.78125 9.621094 C 21.78125 10.535156 22.539062 11.285156 23.464844 11.285156 L 24.058594 11.285156 "/><path style=" stroke:none;fill-rule:nonzero;fill:#fbc197;fill-opacity:1;" d="M 29.078125 16.28125 C 26.289062 16.28125 24.023438 14.046875 24.023438 11.285156 L 24.023438 7.402344 C 24.023438 4.644531 26.289062 2.40625 29.078125 2.40625 C 31.867188 2.40625 34.128906 4.644531 34.128906 7.402344 L 34.128906 11.285156 C 34.128906 14.046875 31.867188 16.28125 29.078125 16.28125 "/><path style=" stroke:none;fill-rule:nonzero;fill:#fab683;fill-opacity:1;" d="M 29.078125 2.40625 C 28.691406 2.40625 28.316406 2.453125 27.953125 2.535156 C 30.203125 3.039062 31.882812 5.023438 31.882812 7.402344 L 31.882812 11.285156 C 31.882812 13.664062 30.203125 15.648438 27.953125 16.15625 C 28.316406 16.234375 28.691406 16.28125 29.078125 16.28125 C 31.867188 16.28125 34.128906 14.046875 34.128906 11.285156 L 34.128906 7.402344 C 34.128906 4.644531 31.867188 2.40625 29.078125 2.40625 "/><path style=" stroke:none;fill-rule:nonzero;fill:#753926;fill-opacity:1;" d="M 26.550781 7.957031 C 26.085938 7.957031 25.707031 8.328125 25.707031 8.789062 C 25.707031 9.25 26.085938 9.621094 26.550781 9.621094 C 27.015625 9.621094 27.390625 9.25 27.390625 8.789062 C 27.390625 8.328125 27.015625 7.957031 26.550781 7.957031 "/><path style=" stroke:none;fill-rule:nonzero;fill:#753926;fill-opacity:1;" d="M 31.601562 7.957031 C 31.136719 7.957031 30.761719 8.328125 30.761719 8.789062 C 30.761719 9.25 31.136719 9.621094 31.601562 9.621094 C 32.066406 9.621094 32.445312 9.25 32.445312 8.789062 C 32.445312 8.328125 32.066406 7.957031 31.601562 7.957031 "/><path style=" stroke:none;fill-rule:nonzero;fill:#f9ab71;fill-opacity:1;" d="M 30.199219 11.84375 L 27.953125 11.84375 C 27.773438 11.84375 27.605469 11.753906 27.496094 11.613281 C 27.390625 11.46875 27.363281 11.28125 27.421875 11.113281 L 28.542969 7.78125 L 29.609375 8.132812 L 28.730469 10.730469 L 30.199219 10.730469 L 30.199219 11.84375 "/><path style=" stroke:none;fill-rule:nonzero;fill:#753926;fill-opacity:1;" d="M 33.566406 5.179688 L 25.707031 5.179688 C 24.933594 5.179688 24.304688 4.5625 24.304688 3.792969 C 24.304688 3.027344 24.933594 2.40625 25.707031 2.40625 L 30.144531 2.40625 C 31.808594 2.40625 33.238281 3.566406 33.566406 5.179688 "/><path style=" stroke:none;fill-rule:nonzero;fill:#db302b;fill-opacity:1;" d="M 22.339844 31.824219 L 21.21875 31.824219 L 21.21875 25.164062 L 22.339844 25.164062 L 22.339844 31.824219 "/><path style=" stroke:none;fill-rule:nonzero;fill:#db302b;fill-opacity:1;" d="M 36.933594 31.824219 L 35.8125 31.824219 L 35.8125 25.164062 L 36.933594 25.164062 L 36.933594 31.824219 "/><path style=" stroke:none;fill-rule:nonzero;fill:#f9ab71;fill-opacity:1;" d="M 34.6875 27.941406 L 16.726562 28.496094 L 16.726562 32.9375 C 16.726562 33.855469 17.480469 34.601562 18.410156 34.601562 L 21.78125 34.601562 L 34.6875 30.894531 L 38.617188 30.160156 L 41.425781 31.269531 L 41.425781 26.828125 L 38.058594 26.273438 L 34.6875 27.941406 "/><path style=" stroke:none;fill-rule:nonzero;fill:#5c291c;fill-opacity:1;" d="M 29.714844 2.40625 L 28.394531 2.40625 L 30.121094 5.179688 L 31.441406 5.179688 L 29.714844 2.40625 "/><path style=" stroke:none;fill-rule:nonzero;fill:#5c291c;fill-opacity:1;" d="M 25.707031 2.40625 C 25.667969 2.40625 25.632812 2.414062 25.59375 2.417969 L 27.300781 5.179688 L 28.617188 5.179688 L 26.902344 2.40625 L 25.707031 2.40625 "/><path style=" stroke:none;fill-rule:nonzero;fill:#914a32;fill-opacity:1;" d="M 18.410156 34.601562 L 15.605469 34.601562 L 15.605469 16.839844 L 18.410156 16.839844 L 18.410156 34.601562 "/><path style=" stroke:none;fill-rule:nonzero;fill:#e2e2de;fill-opacity:1;" d="M 21.78125 16.839844 L 12.238281 16.839844 L 12.238281 13.507812 L 17.851562 13.507812 L 19.535156 14.617188 L 21.78125 14.617188 L 21.78125 16.839844 "/><path style=" stroke:none;fill-rule:nonzero;fill:#d8d7d3;fill-opacity:1;" d="M 18.570312 13.980469 L 14.0625 16.839844 L 21.78125 16.839844 L 21.78125 14.617188 L 19.535156 14.617188 L 18.570312 13.980469 "/><path style=" stroke:none;fill-rule:nonzero;fill:#7e3b26;fill-opacity:1;" d="M 18.410156 18.503906 L 15.605469 18.503906 L 15.605469 16.839844 L 18.410156 16.839844 L 18.410156 18.503906 "/><path style=" stroke:none;fill-rule:nonzero;fill:#fbc197;fill-opacity:1;" d="M 23.464844 27.941406 L 41.425781 29.050781 L 41.425781 32.9375 C 41.425781 33.855469 40.671875 34.601562 39.742188 34.601562 L 36.375 34.601562 L 23.464844 31.824219 L 19.535156 31.269531 L 13.921875 31.269531 L 13.921875 26.273438 L 20.09375 26.273438 L 23.464844 27.941406 "/><path style=" stroke:none;fill-rule:nonzero;fill:#753926;fill-opacity:1;" d="M 30.824219 18.503906 L 27.328125 18.503906 C 26.359375 18.503906 25.503906 17.890625 25.199219 16.984375 L 24.371094 14.53125 C 24.140625 13.855469 24.023438 13.144531 24.023438 12.425781 L 24.023438 7.957031 L 24.992188 10.984375 C 25.371094 11.734375 26.332031 11.988281 27.039062 11.519531 C 27.269531 11.371094 27.542969 11.285156 27.820312 11.285156 L 30.332031 11.285156 C 30.609375 11.285156 30.882812 11.371094 31.117188 11.519531 L 31.214844 11.585938 C 31.882812 12.027344 32.789062 11.824219 33.203125 11.144531 L 34.128906 7.957031 L 34.128906 12.425781 C 34.128906 13.144531 34.011719 13.855469 33.78125 14.53125 L 32.953125 16.984375 C 32.648438 17.890625 31.792969 18.503906 30.824219 18.503906 "/><path style=" stroke:none;fill-rule:nonzero;fill:#fbc197;fill-opacity:1;" d="M 28.4375 14.0625 L 27.390625 14.0625 L 27.390625 12.953125 L 28.4375 12.953125 C 29.207031 12.953125 29.949219 12.777344 30.476562 12.472656 L 31.042969 13.429688 C 30.339844 13.839844 29.410156 14.0625 28.4375 14.0625 "/><g clip-rule="nonzero" clip-path="url(#90d46e0a17)"><path style=" stroke:none;fill-rule:nonzero;fill:#231f20;fill-opacity:1;" d="M 21.21875 16.28125 L 21.21875 15.171875 L 19.535156 15.171875 C 19.421875 15.171875 19.316406 15.140625 19.222656 15.078125 L 17.679688 14.0625 L 12.796875 14.0625 L 12.796875 16.28125 Z M 18.972656 20.394531 L 18.972656 25.71875 L 20.09375 25.71875 C 20.183594 25.71875 20.269531 25.738281 20.347656 25.777344 L 21.21875 26.210938 L 21.21875 25.164062 L 22.339844 25.164062 L 22.339844 26.765625 L 22.464844 26.824219 L 22.902344 25.097656 L 22.902344 19.585938 C 21.824219 19.785156 20.628906 20.007812 19.574219 20.203125 C 19.367188 20.246094 19.164062 20.3125 18.972656 20.394531 Z M 17.851562 25.71875 L 17.851562 17.394531 L 16.167969 17.394531 L 16.167969 25.71875 Z M 23.210938 28.4375 L 19.964844 26.828125 L 14.484375 26.828125 L 14.484375 30.714844 L 19.535156 30.714844 C 19.558594 30.714844 19.585938 30.71875 19.613281 30.722656 L 23.542969 31.277344 L 36.433594 34.046875 L 39.742188 34.046875 C 40.359375 34.046875 40.863281 33.546875 40.863281 32.9375 L 40.863281 29.574219 L 23.429688 28.492188 C 23.355469 28.488281 23.277344 28.46875 23.210938 28.4375 Z M 23.492188 27.335938 L 23.613281 27.394531 L 27.246094 27.617188 L 34.546875 27.390625 L 34.660156 27.332031 L 34.25 25.71875 L 23.902344 25.71875 Z M 24.023438 24.609375 L 25.148438 24.609375 L 25.148438 19.171875 C 25.066406 19.1875 24.988281 19.203125 24.894531 19.21875 L 24.722656 19.25 C 24.652344 19.261719 24.59375 19.273438 24.535156 19.289062 C 24.421875 19.304688 24.359375 19.320312 24.289062 19.328125 L 24.023438 19.378906 Z M 31.882812 21.277344 L 31.882812 19.84375 L 31.054688 20.664062 Z M 29.636719 24.609375 L 31.882812 24.609375 L 31.882812 22.667969 L 30.449219 21.601562 L 29.636719 23.609375 Z M 29.078125 22.003906 L 29.675781 20.519531 L 29.679688 20.519531 C 29.707031 20.449219 29.746094 20.386719 29.800781 20.332031 L 31.109375 19.035156 C 31.015625 19.046875 30.921875 19.058594 30.824219 19.058594 L 27.328125 19.058594 C 27.230469 19.058594 27.136719 19.046875 27.042969 19.035156 L 28.351562 20.332031 C 28.40625 20.386719 28.445312 20.449219 28.472656 20.519531 L 28.476562 20.519531 Z M 27.097656 20.664062 L 26.269531 19.84375 L 26.269531 21.277344 Z M 26.269531 22.667969 L 26.269531 24.609375 L 28.515625 24.609375 L 28.515625 23.609375 L 27.703125 21.601562 Z M 25.726562 16.808594 C 25.957031 17.492188 26.601562 17.949219 27.328125 17.949219 L 30.824219 17.949219 C 31.550781 17.949219 32.195312 17.492188 32.425781 16.808594 L 33.25 14.355469 C 33.460938 13.734375 33.566406 13.085938 33.566406 12.425781 L 33.566406 11.605469 C 33.285156 11.96875 32.890625 12.226562 32.429688 12.328125 C 31.898438 12.445312 31.355469 12.34375 30.902344 12.046875 L 30.804688 11.984375 C 30.664062 11.890625 30.5 11.84375 30.332031 11.84375 L 27.820312 11.84375 C 27.652344 11.84375 27.488281 11.890625 27.347656 11.984375 C 26.878906 12.292969 26.296875 12.386719 25.75 12.246094 C 25.265625 12.117188 24.847656 11.8125 24.585938 11.398438 L 24.585938 12.425781 C 24.585938 13.085938 24.691406 13.734375 24.902344 14.355469 Z M 24.585938 7.871094 L 25.515625 10.769531 C 25.628906 10.96875 25.8125 11.113281 26.039062 11.171875 C 26.277344 11.234375 26.519531 11.195312 26.726562 11.058594 C 26.972656 10.898438 27.253906 10.792969 27.542969 10.75 L 28.542969 7.78125 L 29.609375 8.132812 L 28.730469 10.730469 L 30.332031 10.730469 C 30.726562 10.730469 31.101562 10.84375 31.425781 11.058594 L 31.527344 11.125 C 31.71875 11.253906 31.949219 11.296875 32.179688 11.242188 C 32.390625 11.199219 32.566406 11.082031 32.6875 10.910156 L 33.566406 7.878906 L 33.566406 7.402344 C 33.566406 6.828125 33.449219 6.261719 33.234375 5.734375 L 25.707031 5.734375 C 25.453125 5.734375 25.207031 5.683594 24.980469 5.59375 C 24.722656 6.160156 24.585938 6.773438 24.585938 7.402344 Z M 24.867188 3.792969 C 24.867188 4.253906 25.242188 4.625 25.707031 4.625 L 26.960938 4.625 L 25.953125 2.960938 L 25.707031 2.960938 C 25.242188 2.960938 24.867188 3.332031 24.867188 3.792969 Z M 27.261719 2.960938 L 28.273438 4.625 L 29.769531 4.625 L 28.757812 2.960938 Z M 30.066406 2.960938 L 31.078125 4.625 L 32.796875 4.625 C 32.320312 3.628906 31.296875 2.960938 30.144531 2.960938 Z M 33.003906 19.171875 L 33.003906 24.609375 L 34.128906 24.609375 L 34.128906 19.378906 Z M 35.25 25.097656 L 35.6875 26.824219 L 35.8125 26.765625 L 35.8125 25.164062 L 36.933594 25.164062 L 36.933594 26.210938 L 37.804688 25.777344 C 37.914062 25.726562 38.03125 25.707031 38.148438 25.726562 L 40.863281 26.175781 L 40.863281 22.933594 C 40.863281 21.597656 39.902344 20.449219 38.578125 20.203125 L 35.25 19.585938 Z M 40.863281 27.300781 L 38.144531 26.851562 L 35.558594 28.128906 L 40.863281 28.457031 Z M 25.746094 32.882812 L 23.34375 32.367188 L 19.496094 31.824219 L 18.972656 31.824219 L 18.972656 34.046875 L 21.699219 34.046875 Z M 17.851562 31.824219 L 16.167969 31.824219 L 16.167969 34.046875 L 17.851562 34.046875 Z M 23.464844 8.515625 C 22.828125 8.527344 22.339844 9.019531 22.339844 9.621094 C 22.339844 10.234375 22.84375 10.730469 23.464844 10.730469 Z M 34.6875 10.730469 C 35.308594 10.730469 35.8125 10.234375 35.8125 9.621094 C 35.8125 9.011719 35.308594 8.511719 34.6875 8.511719 Z M 18.972656 17.394531 L 18.972656 19.222656 C 19.101562 19.183594 19.230469 19.136719 19.367188 19.113281 C 20.648438 18.875 22.148438 18.597656 23.359375 18.375 L 24.082031 18.238281 C 24.167969 18.222656 24.25 18.207031 24.328125 18.199219 C 24.363281 18.1875 24.449219 18.167969 24.527344 18.152344 L 24.695312 18.125 C 24.808594 18.105469 24.910156 18.089844 25 18.070312 L 25.148438 18.042969 L 25.148438 18.023438 C 24.941406 17.769531 24.773438 17.480469 24.664062 17.160156 L 23.839844 14.707031 C 23.589844 13.972656 23.464844 13.203125 23.464844 12.425781 L 23.464844 11.84375 C 22.222656 11.84375 21.21875 10.847656 21.21875 9.621094 C 21.21875 8.398438 22.222656 7.402344 23.464844 7.402344 C 23.464844 6.523438 23.6875 5.667969 24.089844 4.890625 C 23.871094 4.578125 23.742188 4.199219 23.742188 3.792969 C 23.742188 2.722656 24.625 1.851562 25.707031 1.851562 L 30.144531 1.851562 C 31.996094 1.851562 33.609375 3.109375 34.066406 4.867188 C 34.472656 5.648438 34.6875 6.519531 34.6875 7.402344 C 35.929688 7.402344 36.933594 8.398438 36.933594 9.621094 C 36.933594 10.847656 35.929688 11.84375 34.6875 11.84375 L 34.6875 12.425781 C 34.6875 13.203125 34.5625 13.972656 34.3125 14.707031 L 33.488281 17.160156 C 33.378906 17.480469 33.210938 17.769531 33.003906 18.023438 L 33.003906 18.042969 L 38.78125 19.113281 C 40.640625 19.457031 41.984375 21.0625 41.984375 22.933594 L 41.984375 32.9375 C 41.984375 34.160156 40.980469 35.15625 39.742188 35.15625 L 36.375 35.15625 C 36.332031 35.15625 36.292969 35.152344 36.253906 35.144531 L 28.046875 33.378906 L 21.933594 35.132812 C 21.882812 35.148438 21.832031 35.15625 21.78125 35.15625 L 15.605469 35.15625 C 15.296875 35.15625 15.042969 34.90625 15.042969 34.601562 L 15.042969 31.824219 L 13.921875 31.824219 C 13.613281 31.824219 13.359375 31.578125 13.359375 31.269531 L 13.359375 26.273438 C 13.359375 25.96875 13.613281 25.71875 13.921875 25.71875 L 15.042969 25.71875 L 15.042969 17.394531 L 12.238281 17.394531 C 11.929688 17.394531 11.675781 17.144531 11.675781 16.839844 L 11.675781 13.507812 C 11.675781 13.203125 11.929688 12.953125 12.238281 12.953125 L 17.851562 12.953125 C 17.960938 12.953125 18.070312 12.984375 18.160156 13.046875 L 19.703125 14.0625 L 21.78125 14.0625 C 22.089844 14.0625 22.339844 14.3125 22.339844 14.617188 L 22.339844 16.839844 C 22.339844 17.144531 22.089844 17.394531 21.78125 17.394531 Z M 28.4375 14.0625 C 29.410156 14.0625 30.339844 13.839844 31.042969 13.429688 L 30.476562 12.472656 C 29.949219 12.777344 29.207031 12.953125 28.4375 12.953125 L 27.390625 12.953125 L 27.390625 14.0625 Z M 31.601562 9.621094 C 32.066406 9.621094 32.445312 9.25 32.445312 8.789062 C 32.445312 8.328125 32.066406 7.957031 31.601562 7.957031 C 31.136719 7.957031 30.761719 8.328125 30.761719 8.789062 C 30.761719 9.25 31.136719 9.621094 31.601562 9.621094 Z M 25.707031 8.789062 C 25.707031 8.328125 26.085938 7.957031 26.550781 7.957031 C 27.015625 7.957031 27.390625 8.328125 27.390625 8.789062 C 27.390625 9.25 27.015625 9.621094 26.550781 9.621094 C 26.085938 9.621094 25.707031 9.25 25.707031 8.789062 "/></g><g style="fill:#000000;fill-opacity:1;"><g transform="translate(52.002426, 33.728815)"><path style="stroke:none" d="M 5.296875 -2.015625 C 5.296875 -1.347656 5.050781 -0.828125 4.5625 -0.453125 C 4.082031 -0.078125 3.429688 0.109375 2.609375 0.109375 C 2.179688 0.109375 1.785156 0.078125 1.421875 0.015625 C 1.066406 -0.046875 0.769531 -0.132812 0.53125 -0.25 L 0.53125 -1.15625 C 0.789062 -1.050781 1.109375 -0.953125 1.484375 -0.859375 C 1.859375 -0.765625 2.25 -0.71875 2.65625 -0.71875 C 3.207031 -0.71875 3.628906 -0.828125 3.921875 -1.046875 C 4.210938 -1.265625 4.359375 -1.5625 4.359375 -1.9375 C 4.359375 -2.175781 4.300781 -2.378906 4.1875 -2.546875 C 4.082031 -2.722656 3.898438 -2.878906 3.640625 -3.015625 C 3.378906 -3.160156 3.023438 -3.316406 2.578125 -3.484375 C 1.929688 -3.710938 1.445312 -3.992188 1.125 -4.328125 C 0.800781 -4.671875 0.640625 -5.132812 0.640625 -5.71875 C 0.640625 -6.113281 0.738281 -6.457031 0.9375 -6.75 C 1.144531 -7.039062 1.425781 -7.257812 1.78125 -7.40625 C 2.144531 -7.5625 2.566406 -7.640625 3.046875 -7.640625 C 3.453125 -7.640625 3.828125 -7.601562 4.171875 -7.53125 C 4.515625 -7.457031 4.832031 -7.351562 5.125 -7.21875 L 4.828125 -6.40625 C 4.566406 -6.519531 4.28125 -6.613281 3.96875 -6.6875 C 3.65625 -6.769531 3.335938 -6.8125 3.015625 -6.8125 C 2.546875 -6.8125 2.191406 -6.707031 1.953125 -6.5 C 1.710938 -6.300781 1.59375 -6.039062 1.59375 -5.71875 C 1.59375 -5.457031 1.644531 -5.242188 1.75 -5.078125 C 1.851562 -4.910156 2.023438 -4.757812 2.265625 -4.625 C 2.503906 -4.488281 2.832031 -4.34375 3.25 -4.1875 C 3.6875 -4.03125 4.054688 -3.859375 4.359375 -3.671875 C 4.671875 -3.484375 4.90625 -3.257812 5.0625 -3 C 5.21875 -2.738281 5.296875 -2.410156 5.296875 -2.015625 Z M 5.296875 -2.015625 "/></g></g><g style="fill:#000000;fill-opacity:1;"><g transform="translate(58.557951, 33.728815)"><path style="stroke:none" d="M 5.8125 -2.84375 C 5.8125 -1.90625 5.570312 -1.175781 5.09375 -0.65625 C 4.625 -0.144531 3.984375 0.109375 3.171875 0.109375 C 2.671875 0.109375 2.222656 -0.00390625 1.828125 -0.234375 C 1.441406 -0.460938 1.132812 -0.796875 0.90625 -1.234375 C 0.6875 -1.679688 0.578125 -2.21875 0.578125 -2.84375 C 0.578125 -3.78125 0.8125 -4.5 1.28125 -5 C 1.75 -5.507812 2.394531 -5.765625 3.21875 -5.765625 C 3.71875 -5.765625 4.164062 -5.648438 4.5625 -5.421875 C 4.957031 -5.191406 5.265625 -4.859375 5.484375 -4.421875 C 5.703125 -3.992188 5.8125 -3.46875 5.8125 -2.84375 Z M 1.546875 -2.84375 C 1.546875 -2.175781 1.675781 -1.644531 1.9375 -1.25 C 2.195312 -0.863281 2.617188 -0.671875 3.203125 -0.671875 C 3.773438 -0.671875 4.191406 -0.863281 4.453125 -1.25 C 4.722656 -1.644531 4.859375 -2.175781 4.859375 -2.84375 C 4.859375 -3.507812 4.722656 -4.03125 4.453125 -4.40625 C 4.191406 -4.789062 3.769531 -4.984375 3.1875 -4.984375 C 2.613281 -4.984375 2.195312 -4.789062 1.9375 -4.40625 C 1.675781 -4.03125 1.546875 -3.507812 1.546875 -2.84375 Z M 1.546875 -2.84375 "/></g></g><g style="fill:#000000;fill-opacity:1;"><g transform="translate(65.704594, 33.728815)"><path style="stroke:none" d="M 1.828125 0 L 0.890625 0 L 0.890625 -8.03125 L 1.828125 -8.03125 Z M 1.828125 0 "/></g></g><g style="fill:#000000;fill-opacity:1;"><g transform="translate(69.188435, 33.728815)"><path style="stroke:none" d="M 5.625 -5.65625 L 5.625 0 L 4.875 0 L 4.734375 -0.75 L 4.6875 -0.75 C 4.507812 -0.457031 4.253906 -0.238281 3.921875 -0.09375 C 3.597656 0.0390625 3.253906 0.109375 2.890625 0.109375 C 2.210938 0.109375 1.695312 -0.0507812 1.34375 -0.375 C 1 -0.707031 0.828125 -1.234375 0.828125 -1.953125 L 0.828125 -5.65625 L 1.78125 -5.65625 L 1.78125 -2.015625 C 1.78125 -1.117188 2.195312 -0.671875 3.03125 -0.671875 C 3.65625 -0.671875 4.085938 -0.84375 4.328125 -1.1875 C 4.578125 -1.539062 4.703125 -2.050781 4.703125 -2.71875 L 4.703125 -5.65625 Z M 5.625 -5.65625 "/></g></g><g style="fill:#000000;fill-opacity:1;"><g transform="translate(76.472301, 33.728815)"><path style="stroke:none" d="M 3.171875 0.109375 C 2.660156 0.109375 2.210938 0.0078125 1.828125 -0.1875 C 1.441406 -0.394531 1.132812 -0.710938 0.90625 -1.140625 C 0.6875 -1.578125 0.578125 -2.128906 0.578125 -2.796875 C 0.578125 -3.492188 0.691406 -4.0625 0.921875 -4.5 C 1.148438 -4.9375 1.460938 -5.253906 1.859375 -5.453125 C 2.265625 -5.660156 2.722656 -5.765625 3.234375 -5.765625 C 3.515625 -5.765625 3.789062 -5.734375 4.0625 -5.671875 C 4.332031 -5.617188 4.550781 -5.546875 4.71875 -5.453125 L 4.4375 -4.6875 C 4.269531 -4.75 4.070312 -4.804688 3.84375 -4.859375 C 3.613281 -4.921875 3.40625 -4.953125 3.21875 -4.953125 C 2.101562 -4.953125 1.546875 -4.238281 1.546875 -2.8125 C 1.546875 -2.125 1.679688 -1.597656 1.953125 -1.234375 C 2.222656 -0.878906 2.625 -0.703125 3.15625 -0.703125 C 3.457031 -0.703125 3.726562 -0.734375 3.96875 -0.796875 C 4.207031 -0.859375 4.425781 -0.9375 4.625 -1.03125 L 4.625 -0.203125 C 4.4375 -0.0976562 4.226562 -0.0195312 4 0.03125 C 3.769531 0.0820312 3.492188 0.109375 3.171875 0.109375 Z M 3.171875 0.109375 "/></g></g><g style="fill:#000000;fill-opacity:1;"><g transform="translate(82.299493, 33.728815)"><path style="stroke:none" d="M 1.375 -7.78125 C 1.507812 -7.78125 1.628906 -7.734375 1.734375 -7.640625 C 1.847656 -7.546875 1.90625 -7.394531 1.90625 -7.1875 C 1.90625 -6.988281 1.847656 -6.835938 1.734375 -6.734375 C 1.628906 -6.640625 1.507812 -6.59375 1.375 -6.59375 C 1.21875 -6.59375 1.085938 -6.640625 0.984375 -6.734375 C 0.878906 -6.835938 0.828125 -6.988281 0.828125 -7.1875 C 0.828125 -7.394531 0.878906 -7.546875 0.984375 -7.640625 C 1.085938 -7.734375 1.21875 -7.78125 1.375 -7.78125 Z M 1.828125 -5.65625 L 1.828125 0 L 0.890625 0 L 0.890625 -5.65625 Z M 1.828125 -5.65625 "/></g></g><g style="fill:#000000;fill-opacity:1;"><g transform="translate(85.783334, 33.728815)"><path style="stroke:none" d="M 5.8125 -2.84375 C 5.8125 -1.90625 5.570312 -1.175781 5.09375 -0.65625 C 4.625 -0.144531 3.984375 0.109375 3.171875 0.109375 C 2.671875 0.109375 2.222656 -0.00390625 1.828125 -0.234375 C 1.441406 -0.460938 1.132812 -0.796875 0.90625 -1.234375 C 0.6875 -1.679688 0.578125 -2.21875 0.578125 -2.84375 C 0.578125 -3.78125 0.8125 -4.5 1.28125 -5 C 1.75 -5.507812 2.394531 -5.765625 3.21875 -5.765625 C 3.71875 -5.765625 4.164062 -5.648438 4.5625 -5.421875 C 4.957031 -5.191406 5.265625 -4.859375 5.484375 -4.421875 C 5.703125 -3.992188 5.8125 -3.46875 5.8125 -2.84375 Z M 1.546875 -2.84375 C 1.546875 -2.175781 1.675781 -1.644531 1.9375 -1.25 C 2.195312 -0.863281 2.617188 -0.671875 3.203125 -0.671875 C 3.773438 -0.671875 4.191406 -0.863281 4.453125 -1.25 C 4.722656 -1.644531 4.859375 -2.175781 4.859375 -2.84375 C 4.859375 -3.507812 4.722656 -4.03125 4.453125 -4.40625 C 4.191406 -4.789062 3.769531 -4.984375 3.1875 -4.984375 C 2.613281 -4.984375 2.195312 -4.789062 1.9375 -4.40625 C 1.675781 -4.03125 1.546875 -3.507812 1.546875 -2.84375 Z M 1.546875 -2.84375 "/></g></g><g style="fill:#000000;fill-opacity:1;"><g transform="translate(92.929977, 33.728815)"><path style="stroke:none" d="M 3.625 -5.765625 C 4.300781 -5.765625 4.8125 -5.597656 5.15625 -5.265625 C 5.5 -4.941406 5.671875 -4.414062 5.671875 -3.6875 L 5.671875 0 L 4.75 0 L 4.75 -3.625 C 4.75 -4.53125 4.328125 -4.984375 3.484375 -4.984375 C 2.859375 -4.984375 2.425781 -4.804688 2.1875 -4.453125 C 1.945312 -4.097656 1.828125 -3.59375 1.828125 -2.9375 L 1.828125 0 L 0.890625 0 L 0.890625 -5.65625 L 1.640625 -5.65625 L 1.78125 -4.890625 L 1.84375 -4.890625 C 2.019531 -5.179688 2.269531 -5.398438 2.59375 -5.546875 C 2.914062 -5.691406 3.257812 -5.765625 3.625 -5.765625 Z M 3.625 -5.765625 "/></g></g><g style="fill:#000000;fill-opacity:1;"><g transform="translate(100.213844, 33.728815)"><path style="stroke:none" d="M 3.078125 -5.765625 C 3.554688 -5.765625 3.972656 -5.660156 4.328125 -5.453125 C 4.679688 -5.242188 4.953125 -4.945312 5.140625 -4.5625 C 5.328125 -4.175781 5.421875 -3.726562 5.421875 -3.21875 L 5.421875 -2.65625 L 1.546875 -2.65625 C 1.554688 -2.007812 1.71875 -1.519531 2.03125 -1.1875 C 2.34375 -0.851562 2.78125 -0.6875 3.34375 -0.6875 C 3.707031 -0.6875 4.023438 -0.71875 4.296875 -0.78125 C 4.578125 -0.851562 4.867188 -0.953125 5.171875 -1.078125 L 5.171875 -0.265625 C 4.878906 -0.140625 4.59375 -0.046875 4.3125 0.015625 C 4.03125 0.078125 3.695312 0.109375 3.3125 0.109375 C 2.769531 0.109375 2.289062 0 1.875 -0.21875 C 1.46875 -0.4375 1.148438 -0.757812 0.921875 -1.1875 C 0.691406 -1.625 0.578125 -2.15625 0.578125 -2.78125 C 0.578125 -3.40625 0.679688 -3.9375 0.890625 -4.375 C 1.097656 -4.820312 1.390625 -5.164062 1.765625 -5.40625 C 2.140625 -5.644531 2.578125 -5.765625 3.078125 -5.765625 Z M 3.078125 -5 C 2.628906 -5 2.273438 -4.859375 2.015625 -4.578125 C 1.765625 -4.296875 1.613281 -3.898438 1.5625 -3.390625 L 4.453125 -3.390625 C 4.441406 -3.867188 4.328125 -4.253906 4.109375 -4.546875 C 3.890625 -4.847656 3.546875 -5 3.078125 -5 Z M 3.078125 -5 "/></g></g><g style="fill:#000000;fill-opacity:1;"><g transform="translate(106.927704, 33.728815)"><path style="stroke:none" d="M 4.578125 -1.5625 C 4.578125 -1.007812 4.375 -0.59375 3.96875 -0.3125 C 3.5625 -0.03125 3.015625 0.109375 2.328125 0.109375 C 1.929688 0.109375 1.585938 0.078125 1.296875 0.015625 C 1.015625 -0.046875 0.765625 -0.132812 0.546875 -0.25 L 0.546875 -1.09375 C 0.773438 -0.976562 1.046875 -0.875 1.359375 -0.78125 C 1.679688 -0.6875 2.007812 -0.640625 2.34375 -0.640625 C 2.8125 -0.640625 3.148438 -0.710938 3.359375 -0.859375 C 3.578125 -1.015625 3.6875 -1.222656 3.6875 -1.484375 C 3.6875 -1.617188 3.644531 -1.742188 3.5625 -1.859375 C 3.488281 -1.972656 3.351562 -2.082031 3.15625 -2.1875 C 2.957031 -2.300781 2.671875 -2.429688 2.296875 -2.578125 C 1.929688 -2.710938 1.617188 -2.851562 1.359375 -3 C 1.097656 -3.144531 0.894531 -3.3125 0.75 -3.5 C 0.601562 -3.695312 0.53125 -3.953125 0.53125 -4.265625 C 0.53125 -4.742188 0.726562 -5.113281 1.125 -5.375 C 1.519531 -5.632812 2.03125 -5.765625 2.65625 -5.765625 C 3 -5.765625 3.320312 -5.726562 3.625 -5.65625 C 3.925781 -5.59375 4.207031 -5.503906 4.46875 -5.390625 L 4.15625 -4.640625 C 3.914062 -4.742188 3.664062 -4.828125 3.40625 -4.890625 C 3.144531 -4.960938 2.875 -5 2.59375 -5 C 2.21875 -5 1.925781 -4.9375 1.71875 -4.8125 C 1.519531 -4.695312 1.421875 -4.53125 1.421875 -4.3125 C 1.421875 -4.15625 1.46875 -4.023438 1.5625 -3.921875 C 1.65625 -3.816406 1.804688 -3.707031 2.015625 -3.59375 C 2.234375 -3.488281 2.523438 -3.375 2.890625 -3.25 C 3.242188 -3.113281 3.546875 -2.972656 3.796875 -2.828125 C 4.054688 -2.691406 4.25 -2.519531 4.375 -2.3125 C 4.507812 -2.113281 4.578125 -1.863281 4.578125 -1.5625 Z M 4.578125 -1.5625 "/></g></g><g style="fill:#000000;fill-opacity:1;"><g transform="translate(112.74434, 33.728815)"><path style="stroke:none" d=""/></g></g><g style="fill:#000000;fill-opacity:1;"><g transform="translate(114.56039, 33.728815)"><path style="stroke:none" d="M 3.078125 -5.765625 C 3.554688 -5.765625 3.972656 -5.660156 4.328125 -5.453125 C 4.679688 -5.242188 4.953125 -4.945312 5.140625 -4.5625 C 5.328125 -4.175781 5.421875 -3.726562 5.421875 -3.21875 L 5.421875 -2.65625 L 1.546875 -2.65625 C 1.554688 -2.007812 1.71875 -1.519531 2.03125 -1.1875 C 2.34375 -0.851562 2.78125 -0.6875 3.34375 -0.6875 C 3.707031 -0.6875 4.023438 -0.71875 4.296875 -0.78125 C 4.578125 -0.851562 4.867188 -0.953125 5.171875 -1.078125 L 5.171875 -0.265625 C 4.878906 -0.140625 4.59375 -0.046875 4.3125 0.015625 C 4.03125 0.078125 3.695312 0.109375 3.3125 0.109375 C 2.769531 0.109375 2.289062 0 1.875 -0.21875 C 1.46875 -0.4375 1.148438 -0.757812 0.921875 -1.1875 C 0.691406 -1.625 0.578125 -2.15625 0.578125 -2.78125 C 0.578125 -3.40625 0.679688 -3.9375 0.890625 -4.375 C 1.097656 -4.820312 1.390625 -5.164062 1.765625 -5.40625 C 2.140625 -5.644531 2.578125 -5.765625 3.078125 -5.765625 Z M 3.078125 -5 C 2.628906 -5 2.273438 -4.859375 2.015625 -4.578125 C 1.765625 -4.296875 1.613281 -3.898438 1.5625 -3.390625 L 4.453125 -3.390625 C 4.441406 -3.867188 4.328125 -4.253906 4.109375 -4.546875 C 3.890625 -4.847656 3.546875 -5 3.078125 -5 Z M 3.078125 -5 "/></g></g><g style="fill:#000000;fill-opacity:1;"><g transform="translate(121.274251, 33.728815)"><path style="stroke:none" d="M 3.625 -5.765625 C 4.300781 -5.765625 4.8125 -5.597656 5.15625 -5.265625 C 5.5 -4.941406 5.671875 -4.414062 5.671875 -3.6875 L 5.671875 0 L 4.75 0 L 4.75 -3.625 C 4.75 -4.53125 4.328125 -4.984375 3.484375 -4.984375 C 2.859375 -4.984375 2.425781 -4.804688 2.1875 -4.453125 C 1.945312 -4.097656 1.828125 -3.59375 1.828125 -2.9375 L 1.828125 0 L 0.890625 0 L 0.890625 -5.65625 L 1.640625 -5.65625 L 1.78125 -4.890625 L 1.84375 -4.890625 C 2.019531 -5.179688 2.269531 -5.398438 2.59375 -5.546875 C 2.914062 -5.691406 3.257812 -5.765625 3.625 -5.765625 Z M 3.625 -5.765625 "/></g></g><g style="fill:#000000;fill-opacity:1;"><g transform="translate(128.558117, 33.728815)"><path style="stroke:none" d=""/></g></g><g style="fill:#000000;fill-opacity:1;"><g transform="translate(130.374167, 33.728815)"><path style="stroke:none" d="M 4.359375 0 L 1.875 -6.609375 L 1.828125 -6.609375 C 1.847656 -6.390625 1.863281 -6.09375 1.875 -5.71875 C 1.894531 -5.351562 1.90625 -4.972656 1.90625 -4.578125 L 1.90625 0 L 1.03125 0 L 1.03125 -7.546875 L 2.421875 -7.546875 L 4.75 -1.359375 L 4.796875 -1.359375 L 7.15625 -7.546875 L 8.5625 -7.546875 L 8.5625 0 L 7.609375 0 L 7.609375 -4.640625 C 7.609375 -5.003906 7.617188 -5.363281 7.640625 -5.71875 C 7.660156 -6.082031 7.675781 -6.375 7.6875 -6.59375 L 7.640625 -6.59375 L 5.140625 0 Z M 4.359375 0 "/></g></g><g style="fill:#000000;fill-opacity:1;"><g transform="translate(140.708605, 33.728815)"><path style="stroke:none" d="M 5.8125 -2.84375 C 5.8125 -1.90625 5.570312 -1.175781 5.09375 -0.65625 C 4.625 -0.144531 3.984375 0.109375 3.171875 0.109375 C 2.671875 0.109375 2.222656 -0.00390625 1.828125 -0.234375 C 1.441406 -0.460938 1.132812 -0.796875 0.90625 -1.234375 C 0.6875 -1.679688 0.578125 -2.21875 0.578125 -2.84375 C 0.578125 -3.78125 0.8125 -4.5 1.28125 -5 C 1.75 -5.507812 2.394531 -5.765625 3.21875 -5.765625 C 3.71875 -5.765625 4.164062 -5.648438 4.5625 -5.421875 C 4.957031 -5.191406 5.265625 -4.859375 5.484375 -4.421875 C 5.703125 -3.992188 5.8125 -3.46875 5.8125 -2.84375 Z M 1.546875 -2.84375 C 1.546875 -2.175781 1.675781 -1.644531 1.9375 -1.25 C 2.195312 -0.863281 2.617188 -0.671875 3.203125 -0.671875 C 3.773438 -0.671875 4.191406 -0.863281 4.453125 -1.25 C 4.722656 -1.644531 4.859375 -2.175781 4.859375 -2.84375 C 4.859375 -3.507812 4.722656 -4.03125 4.453125 -4.40625 C 4.191406 -4.789062 3.769531 -4.984375 3.1875 -4.984375 C 2.613281 -4.984375 2.195312 -4.789062 1.9375 -4.40625 C 1.675781 -4.03125 1.546875 -3.507812 1.546875 -2.84375 Z M 1.546875 -2.84375 "/></g></g><g style="fill:#000000;fill-opacity:1;"><g transform="translate(147.855248, 33.728815)"><path style="stroke:none" d="M 3.625 -5.765625 C 4.300781 -5.765625 4.8125 -5.597656 5.15625 -5.265625 C 5.5 -4.941406 5.671875 -4.414062 5.671875 -3.6875 L 5.671875 0 L 4.75 0 L 4.75 -3.625 C 4.75 -4.53125 4.328125 -4.984375 3.484375 -4.984375 C 2.859375 -4.984375 2.425781 -4.804688 2.1875 -4.453125 C 1.945312 -4.097656 1.828125 -3.59375 1.828125 -2.9375 L 1.828125 0 L 0.890625 0 L 0.890625 -5.65625 L 1.640625 -5.65625 L 1.78125 -4.890625 L 1.84375 -4.890625 C 2.019531 -5.179688 2.269531 -5.398438 2.59375 -5.546875 C 2.914062 -5.691406 3.257812 -5.765625 3.625 -5.765625 Z M 3.625 -5.765625 "/></g></g><g style="fill:#000000;fill-opacity:1;"><g transform="translate(155.139114, 33.728815)"><path style="stroke:none" d="M 2.78125 -0.65625 C 2.925781 -0.65625 3.070312 -0.664062 3.21875 -0.6875 C 3.363281 -0.707031 3.484375 -0.734375 3.578125 -0.765625 L 3.578125 -0.0625 C 3.484375 -0.0078125 3.34375 0.03125 3.15625 0.0625 C 2.976562 0.09375 2.800781 0.109375 2.625 0.109375 C 2.332031 0.109375 2.0625 0.0546875 1.8125 -0.046875 C 1.5625 -0.148438 1.359375 -0.328125 1.203125 -0.578125 C 1.046875 -0.835938 0.96875 -1.191406 0.96875 -1.640625 L 0.96875 -4.9375 L 0.171875 -4.9375 L 0.171875 -5.390625 L 0.984375 -5.75 L 1.359375 -6.953125 L 1.90625 -6.953125 L 1.90625 -5.65625 L 3.53125 -5.65625 L 3.53125 -4.9375 L 1.90625 -4.9375 L 1.90625 -1.671875 C 1.90625 -1.328125 1.984375 -1.070312 2.140625 -0.90625 C 2.304688 -0.738281 2.519531 -0.65625 2.78125 -0.65625 Z M 2.78125 -0.65625 "/></g></g><g style="fill:#000000;fill-opacity:1;"><g transform="translate(159.710184, 33.728815)"><path style="stroke:none" d="M 3.046875 -5.75 C 3.734375 -5.75 4.238281 -5.597656 4.5625 -5.296875 C 4.894531 -4.992188 5.0625 -4.515625 5.0625 -3.859375 L 5.0625 0 L 4.390625 0 L 4.21875 -0.796875 L 4.171875 -0.796875 C 3.921875 -0.492188 3.660156 -0.265625 3.390625 -0.109375 C 3.117188 0.0351562 2.742188 0.109375 2.265625 0.109375 C 1.753906 0.109375 1.328125 -0.0234375 0.984375 -0.296875 C 0.648438 -0.566406 0.484375 -0.992188 0.484375 -1.578125 C 0.484375 -2.140625 0.703125 -2.570312 1.140625 -2.875 C 1.585938 -3.1875 2.273438 -3.351562 3.203125 -3.375 L 4.15625 -3.40625 L 4.15625 -3.75 C 4.15625 -4.21875 4.050781 -4.539062 3.84375 -4.71875 C 3.644531 -4.90625 3.359375 -5 2.984375 -5 C 2.691406 -5 2.410156 -4.957031 2.140625 -4.875 C 1.878906 -4.789062 1.628906 -4.691406 1.390625 -4.578125 L 1.109375 -5.265625 C 1.359375 -5.398438 1.648438 -5.515625 1.984375 -5.609375 C 2.328125 -5.703125 2.679688 -5.75 3.046875 -5.75 Z M 4.15625 -2.765625 L 3.3125 -2.734375 C 2.613281 -2.703125 2.128906 -2.585938 1.859375 -2.390625 C 1.585938 -2.203125 1.453125 -1.925781 1.453125 -1.5625 C 1.453125 -1.25 1.546875 -1.015625 1.734375 -0.859375 C 1.929688 -0.710938 2.179688 -0.640625 2.484375 -0.640625 C 2.953125 -0.640625 3.347656 -0.769531 3.671875 -1.03125 C 3.992188 -1.300781 4.15625 -1.710938 4.15625 -2.265625 Z M 4.15625 -2.765625 "/></g></g><g style="fill:#000000;fill-opacity:1;"><g transform="translate(166.392376, 33.728815)"><path style="stroke:none" d="M 0.828125 -7.1875 C 0.828125 -7.394531 0.878906 -7.546875 0.984375 -7.640625 C 1.085938 -7.734375 1.21875 -7.78125 1.375 -7.78125 C 1.507812 -7.78125 1.628906 -7.734375 1.734375 -7.640625 C 1.847656 -7.546875 1.90625 -7.394531 1.90625 -7.1875 C 1.90625 -6.988281 1.847656 -6.835938 1.734375 -6.734375 C 1.628906 -6.640625 1.507812 -6.59375 1.375 -6.59375 C 1.21875 -6.59375 1.085938 -6.640625 0.984375 -6.734375 C 0.878906 -6.835938 0.828125 -6.988281 0.828125 -7.1875 Z M 0.234375 2.53125 C 0.046875 2.53125 -0.109375 2.519531 -0.234375 2.5 C -0.367188 2.476562 -0.484375 2.445312 -0.578125 2.40625 L -0.578125 1.65625 C -0.472656 1.695312 -0.363281 1.722656 -0.25 1.734375 C -0.132812 1.753906 -0.015625 1.765625 0.109375 1.765625 C 0.335938 1.765625 0.523438 1.703125 0.671875 1.578125 C 0.816406 1.453125 0.890625 1.21875 0.890625 0.875 L 0.890625 -5.65625 L 1.828125 -5.65625 L 1.828125 0.84375 C 1.828125 1.375 1.695312 1.785156 1.4375 2.078125 C 1.1875 2.378906 0.785156 2.53125 0.234375 2.53125 Z M 0.234375 2.53125 "/></g></g><g style="fill:#000000;fill-opacity:1;"><g transform="translate(169.876218, 33.728815)"><path style="stroke:none" d="M 3.078125 -5.765625 C 3.554688 -5.765625 3.972656 -5.660156 4.328125 -5.453125 C 4.679688 -5.242188 4.953125 -4.945312 5.140625 -4.5625 C 5.328125 -4.175781 5.421875 -3.726562 5.421875 -3.21875 L 5.421875 -2.65625 L 1.546875 -2.65625 C 1.554688 -2.007812 1.71875 -1.519531 2.03125 -1.1875 C 2.34375 -0.851562 2.78125 -0.6875 3.34375 -0.6875 C 3.707031 -0.6875 4.023438 -0.71875 4.296875 -0.78125 C 4.578125 -0.851562 4.867188 -0.953125 5.171875 -1.078125 L 5.171875 -0.265625 C 4.878906 -0.140625 4.59375 -0.046875 4.3125 0.015625 C 4.03125 0.078125 3.695312 0.109375 3.3125 0.109375 C 2.769531 0.109375 2.289062 0 1.875 -0.21875 C 1.46875 -0.4375 1.148438 -0.757812 0.921875 -1.1875 C 0.691406 -1.625 0.578125 -2.15625 0.578125 -2.78125 C 0.578125 -3.40625 0.679688 -3.9375 0.890625 -4.375 C 1.097656 -4.820312 1.390625 -5.164062 1.765625 -5.40625 C 2.140625 -5.644531 2.578125 -5.765625 3.078125 -5.765625 Z M 3.078125 -5 C 2.628906 -5 2.273438 -4.859375 2.015625 -4.578125 C 1.765625 -4.296875 1.613281 -3.898438 1.5625 -3.390625 L 4.453125 -3.390625 C 4.441406 -3.867188 4.328125 -4.253906 4.109375 -4.546875 C 3.890625 -4.847656 3.546875 -5 3.078125 -5 Z M 3.078125 -5 "/></g></g><g style="fill:#000000;fill-opacity:1;"><g transform="translate(176.590078, 33.728815)"><path style="stroke:none" d=""/></g></g><g style="fill:#000000;fill-opacity:1;"><g transform="translate(178.406129, 33.728815)"><path style="stroke:none" d="M 2.90625 0.109375 C 2.195312 0.109375 1.628906 -0.132812 1.203125 -0.625 C 0.785156 -1.113281 0.578125 -1.84375 0.578125 -2.8125 C 0.578125 -3.789062 0.789062 -4.523438 1.21875 -5.015625 C 1.644531 -5.515625 2.210938 -5.765625 2.921875 -5.765625 C 3.347656 -5.765625 3.703125 -5.679688 3.984375 -5.515625 C 4.265625 -5.359375 4.492188 -5.164062 4.671875 -4.9375 L 4.734375 -4.9375 C 4.710938 -5.019531 4.695312 -5.148438 4.6875 -5.328125 C 4.675781 -5.515625 4.671875 -5.660156 4.671875 -5.765625 L 4.671875 -8.03125 L 5.59375 -8.03125 L 5.59375 0 L 4.84375 0 L 4.703125 -0.765625 L 4.671875 -0.765625 C 4.503906 -0.523438 4.273438 -0.316406 3.984375 -0.140625 C 3.703125 0.0234375 3.34375 0.109375 2.90625 0.109375 Z M 3.046875 -0.671875 C 3.648438 -0.671875 4.070312 -0.832031 4.3125 -1.15625 C 4.550781 -1.476562 4.671875 -1.972656 4.671875 -2.640625 L 4.671875 -2.8125 C 4.671875 -3.507812 4.554688 -4.046875 4.328125 -4.421875 C 4.097656 -4.804688 3.671875 -5 3.046875 -5 C 2.546875 -5 2.171875 -4.796875 1.921875 -4.390625 C 1.671875 -3.992188 1.546875 -3.460938 1.546875 -2.796875 C 1.546875 -2.117188 1.671875 -1.59375 1.921875 -1.21875 C 2.171875 -0.851562 2.546875 -0.671875 3.046875 -0.671875 Z M 3.046875 -0.671875 "/></g></g><g style="fill:#000000;fill-opacity:1;"><g transform="translate(185.658327, 33.728815)"><path style="stroke:none" d="M 3.078125 -5.765625 C 3.554688 -5.765625 3.972656 -5.660156 4.328125 -5.453125 C 4.679688 -5.242188 4.953125 -4.945312 5.140625 -4.5625 C 5.328125 -4.175781 5.421875 -3.726562 5.421875 -3.21875 L 5.421875 -2.65625 L 1.546875 -2.65625 C 1.554688 -2.007812 1.71875 -1.519531 2.03125 -1.1875 C 2.34375 -0.851562 2.78125 -0.6875 3.34375 -0.6875 C 3.707031 -0.6875 4.023438 -0.71875 4.296875 -0.78125 C 4.578125 -0.851562 4.867188 -0.953125 5.171875 -1.078125 L 5.171875 -0.265625 C 4.878906 -0.140625 4.59375 -0.046875 4.3125 0.015625 C 4.03125 0.078125 3.695312 0.109375 3.3125 0.109375 C 2.769531 0.109375 2.289062 0 1.875 -0.21875 C 1.46875 -0.4375 1.148438 -0.757812 0.921875 -1.1875 C 0.691406 -1.625 0.578125 -2.15625 0.578125 -2.78125 C 0.578125 -3.40625 0.679688 -3.9375 0.890625 -4.375 C 1.097656 -4.820312 1.390625 -5.164062 1.765625 -5.40625 C 2.140625 -5.644531 2.578125 -5.765625 3.078125 -5.765625 Z M 3.078125 -5 C 2.628906 -5 2.273438 -4.859375 2.015625 -4.578125 C 1.765625 -4.296875 1.613281 -3.898438 1.5625 -3.390625 L 4.453125 -3.390625 C 4.441406 -3.867188 4.328125 -4.253906 4.109375 -4.546875 C 3.890625 -4.847656 3.546875 -5 3.078125 -5 Z M 3.078125 -5 "/></g></g><g style="fill:#000000;fill-opacity:1;"><g transform="translate(192.372185, 33.728815)"><path style="stroke:none" d=""/></g></g><g style="fill:#000000;fill-opacity:1;"><g transform="translate(194.18823, 33.728815)"><path style="stroke:none" d="M 4.359375 0 L 1.875 -6.609375 L 1.828125 -6.609375 C 1.847656 -6.390625 1.863281 -6.09375 1.875 -5.71875 C 1.894531 -5.351562 1.90625 -4.972656 1.90625 -4.578125 L 1.90625 0 L 1.03125 0 L 1.03125 -7.546875 L 2.421875 -7.546875 L 4.75 -1.359375 L 4.796875 -1.359375 L 7.15625 -7.546875 L 8.5625 -7.546875 L 8.5625 0 L 7.609375 0 L 7.609375 -4.640625 C 7.609375 -5.003906 7.617188 -5.363281 7.640625 -5.71875 C 7.660156 -6.082031 7.675781 -6.375 7.6875 -6.59375 L 7.640625 -6.59375 L 5.140625 0 Z M 4.359375 0 "/></g></g><g style="fill:#000000;fill-opacity:1;"><g transform="translate(204.52266, 33.728815)"><path style="stroke:none" d="M 5.8125 -2.84375 C 5.8125 -1.90625 5.570312 -1.175781 5.09375 -0.65625 C 4.625 -0.144531 3.984375 0.109375 3.171875 0.109375 C 2.671875 0.109375 2.222656 -0.00390625 1.828125 -0.234375 C 1.441406 -0.460938 1.132812 -0.796875 0.90625 -1.234375 C 0.6875 -1.679688 0.578125 -2.21875 0.578125 -2.84375 C 0.578125 -3.78125 0.8125 -4.5 1.28125 -5 C 1.75 -5.507812 2.394531 -5.765625 3.21875 -5.765625 C 3.71875 -5.765625 4.164062 -5.648438 4.5625 -5.421875 C 4.957031 -5.191406 5.265625 -4.859375 5.484375 -4.421875 C 5.703125 -3.992188 5.8125 -3.46875 5.8125 -2.84375 Z M 1.546875 -2.84375 C 1.546875 -2.175781 1.675781 -1.644531 1.9375 -1.25 C 2.195312 -0.863281 2.617188 -0.671875 3.203125 -0.671875 C 3.773438 -0.671875 4.191406 -0.863281 4.453125 -1.25 C 4.722656 -1.644531 4.859375 -2.175781 4.859375 -2.84375 C 4.859375 -3.507812 4.722656 -4.03125 4.453125 -4.40625 C 4.191406 -4.789062 3.769531 -4.984375 3.1875 -4.984375 C 2.613281 -4.984375 2.195312 -4.789062 1.9375 -4.40625 C 1.675781 -4.03125 1.546875 -3.507812 1.546875 -2.84375 Z M 1.546875 -2.84375 "/></g></g><g style="fill:#000000;fill-opacity:1;"><g transform="translate(211.669311, 33.728815)"><path style="stroke:none" d="M 1.828125 -8.03125 L 1.828125 -6.078125 C 1.828125 -5.835938 1.820312 -5.613281 1.8125 -5.40625 C 1.800781 -5.195312 1.789062 -5.03125 1.78125 -4.90625 L 1.828125 -4.90625 C 1.984375 -5.144531 2.203125 -5.34375 2.484375 -5.5 C 2.773438 -5.664062 3.140625 -5.75 3.578125 -5.75 C 4.285156 -5.75 4.851562 -5.503906 5.28125 -5.015625 C 5.707031 -4.523438 5.921875 -3.796875 5.921875 -2.828125 C 5.921875 -1.859375 5.703125 -1.125 5.265625 -0.625 C 4.835938 -0.132812 4.273438 0.109375 3.578125 0.109375 C 3.140625 0.109375 2.773438 0.03125 2.484375 -0.125 C 2.203125 -0.289062 1.984375 -0.488281 1.828125 -0.71875 L 1.75 -0.71875 L 1.5625 0 L 0.890625 0 L 0.890625 -8.03125 Z M 3.421875 -4.984375 C 2.816406 -4.984375 2.398438 -4.8125 2.171875 -4.46875 C 1.941406 -4.125 1.828125 -3.585938 1.828125 -2.859375 L 1.828125 -2.8125 C 1.828125 -2.125 1.941406 -1.59375 2.171875 -1.21875 C 2.398438 -0.851562 2.820312 -0.671875 3.4375 -0.671875 C 3.945312 -0.671875 4.328125 -0.851562 4.578125 -1.21875 C 4.828125 -1.59375 4.953125 -2.132812 4.953125 -2.84375 C 4.953125 -4.269531 4.441406 -4.984375 3.421875 -4.984375 Z M 3.421875 -4.984375 "/></g></g><g style="fill:#000000;fill-opacity:1;"><g transform="translate(218.921508, 33.728815)"><path style="stroke:none" d="M 1.375 -7.78125 C 1.507812 -7.78125 1.628906 -7.734375 1.734375 -7.640625 C 1.847656 -7.546875 1.90625 -7.394531 1.90625 -7.1875 C 1.90625 -6.988281 1.847656 -6.835938 1.734375 -6.734375 C 1.628906 -6.640625 1.507812 -6.59375 1.375 -6.59375 C 1.21875 -6.59375 1.085938 -6.640625 0.984375 -6.734375 C 0.878906 -6.835938 0.828125 -6.988281 0.828125 -7.1875 C 0.828125 -7.394531 0.878906 -7.546875 0.984375 -7.640625 C 1.085938 -7.734375 1.21875 -7.78125 1.375 -7.78125 Z M 1.828125 -5.65625 L 1.828125 0 L 0.890625 0 L 0.890625 -5.65625 Z M 1.828125 -5.65625 "/></g></g><g style="fill:#000000;fill-opacity:1;"><g transform="translate(222.405358, 33.728815)"><path style="stroke:none" d="M 1.828125 0 L 0.890625 0 L 0.890625 -8.03125 L 1.828125 -8.03125 Z M 1.828125 0 "/></g></g><g style="fill:#000000;fill-opacity:1;"><g transform="translate(225.889191, 33.728815)"><path style="stroke:none" d="M 1.375 -7.78125 C 1.507812 -7.78125 1.628906 -7.734375 1.734375 -7.640625 C 1.847656 -7.546875 1.90625 -7.394531 1.90625 -7.1875 C 1.90625 -6.988281 1.847656 -6.835938 1.734375 -6.734375 C 1.628906 -6.640625 1.507812 -6.59375 1.375 -6.59375 C 1.21875 -6.59375 1.085938 -6.640625 0.984375 -6.734375 C 0.878906 -6.835938 0.828125 -6.988281 0.828125 -7.1875 C 0.828125 -7.394531 0.878906 -7.546875 0.984375 -7.640625 C 1.085938 -7.734375 1.21875 -7.78125 1.375 -7.78125 Z M 1.828125 -5.65625 L 1.828125 0 L 0.890625 0 L 0.890625 -5.65625 Z M 1.828125 -5.65625 "/></g></g><g style="fill:#000000;fill-opacity:1;"><g transform="translate(229.373023, 33.728815)"><path style="stroke:none" d="M 3.046875 -5.75 C 3.734375 -5.75 4.238281 -5.597656 4.5625 -5.296875 C 4.894531 -4.992188 5.0625 -4.515625 5.0625 -3.859375 L 5.0625 0 L 4.390625 0 L 4.21875 -0.796875 L 4.171875 -0.796875 C 3.921875 -0.492188 3.660156 -0.265625 3.390625 -0.109375 C 3.117188 0.0351562 2.742188 0.109375 2.265625 0.109375 C 1.753906 0.109375 1.328125 -0.0234375 0.984375 -0.296875 C 0.648438 -0.566406 0.484375 -0.992188 0.484375 -1.578125 C 0.484375 -2.140625 0.703125 -2.570312 1.140625 -2.875 C 1.585938 -3.1875 2.273438 -3.351562 3.203125 -3.375 L 4.15625 -3.40625 L 4.15625 -3.75 C 4.15625 -4.21875 4.050781 -4.539062 3.84375 -4.71875 C 3.644531 -4.90625 3.359375 -5 2.984375 -5 C 2.691406 -5 2.410156 -4.957031 2.140625 -4.875 C 1.878906 -4.789062 1.628906 -4.691406 1.390625 -4.578125 L 1.109375 -5.265625 C 1.359375 -5.398438 1.648438 -5.515625 1.984375 -5.609375 C 2.328125 -5.703125 2.679688 -5.75 3.046875 -5.75 Z M 4.15625 -2.765625 L 3.3125 -2.734375 C 2.613281 -2.703125 2.128906 -2.585938 1.859375 -2.390625 C 1.585938 -2.203125 1.453125 -1.925781 1.453125 -1.5625 C 1.453125 -1.25 1.546875 -1.015625 1.734375 -0.859375 C 1.929688 -0.710938 2.179688 -0.640625 2.484375 -0.640625 C 2.953125 -0.640625 3.347656 -0.769531 3.671875 -1.03125 C 3.992188 -1.300781 4.15625 -1.710938 4.15625 -2.265625 Z M 4.15625 -2.765625 "/></g></g><g style="fill:#000000;fill-opacity:1;"><g transform="translate(236.055232, 33.728815)"><path style="stroke:none" d="M 3.53125 -5.765625 C 3.644531 -5.765625 3.757812 -5.757812 3.875 -5.75 C 4 -5.738281 4.109375 -5.722656 4.203125 -5.703125 L 4.09375 -4.84375 C 4 -4.863281 3.894531 -4.878906 3.78125 -4.890625 C 3.664062 -4.910156 3.5625 -4.921875 3.46875 -4.921875 C 3.1875 -4.921875 2.914062 -4.84375 2.65625 -4.6875 C 2.40625 -4.53125 2.203125 -4.304688 2.046875 -4.015625 C 1.898438 -3.734375 1.828125 -3.398438 1.828125 -3.015625 L 1.828125 0 L 0.890625 0 L 0.890625 -5.65625 L 1.65625 -5.65625 L 1.765625 -4.625 L 1.8125 -4.625 C 1.976562 -4.9375 2.207031 -5.203125 2.5 -5.421875 C 2.800781 -5.648438 3.144531 -5.765625 3.53125 -5.765625 Z M 3.53125 -5.765625 "/></g></g><g style="fill:#000000;fill-opacity:1;"><g transform="translate(241.175179, 33.728815)"><path style="stroke:none" d="M 1.375 -7.78125 C 1.507812 -7.78125 1.628906 -7.734375 1.734375 -7.640625 C 1.847656 -7.546875 1.90625 -7.394531 1.90625 -7.1875 C 1.90625 -6.988281 1.847656 -6.835938 1.734375 -6.734375 C 1.628906 -6.640625 1.507812 -6.59375 1.375 -6.59375 C 1.21875 -6.59375 1.085938 -6.640625 0.984375 -6.734375 C 0.878906 -6.835938 0.828125 -6.988281 0.828125 -7.1875 C 0.828125 -7.394531 0.878906 -7.546875 0.984375 -7.640625 C 1.085938 -7.734375 1.21875 -7.78125 1.375 -7.78125 Z M 1.828125 -5.65625 L 1.828125 0 L 0.890625 0 L 0.890625 -5.65625 Z M 1.828125 -5.65625 "/></g></g><g style="fill:#000000;fill-opacity:1;"><g transform="translate(244.659028, 33.728815)"><path style="stroke:none" d="M 5.8125 -2.84375 C 5.8125 -1.90625 5.570312 -1.175781 5.09375 -0.65625 C 4.625 -0.144531 3.984375 0.109375 3.171875 0.109375 C 2.671875 0.109375 2.222656 -0.00390625 1.828125 -0.234375 C 1.441406 -0.460938 1.132812 -0.796875 0.90625 -1.234375 C 0.6875 -1.679688 0.578125 -2.21875 0.578125 -2.84375 C 0.578125 -3.78125 0.8125 -4.5 1.28125 -5 C 1.75 -5.507812 2.394531 -5.765625 3.21875 -5.765625 C 3.71875 -5.765625 4.164062 -5.648438 4.5625 -5.421875 C 4.957031 -5.191406 5.265625 -4.859375 5.484375 -4.421875 C 5.703125 -3.992188 5.8125 -3.46875 5.8125 -2.84375 Z M 1.546875 -2.84375 C 1.546875 -2.175781 1.675781 -1.644531 1.9375 -1.25 C 2.195312 -0.863281 2.617188 -0.671875 3.203125 -0.671875 C 3.773438 -0.671875 4.191406 -0.863281 4.453125 -1.25 C 4.722656 -1.644531 4.859375 -2.175781 4.859375 -2.84375 C 4.859375 -3.507812 4.722656 -4.03125 4.453125 -4.40625 C 4.191406 -4.789062 3.769531 -4.984375 3.1875 -4.984375 C 2.613281 -4.984375 2.195312 -4.789062 1.9375 -4.40625 C 1.675781 -4.03125 1.546875 -3.507812 1.546875 -2.84375 Z M 1.546875 -2.84375 "/></g></g><g style="fill:#000000;fill-opacity:1;"><g transform="translate(68.276911, 18.230294)"><path style="stroke:none" d="M 14.125 0 L 14.125 -5.265625 C 14.125 -5.921875 14.144531 -6.585938 14.1875 -7.265625 C 14.238281 -7.953125 14.289062 -8.53125 14.34375 -9 C 14.40625 -9.46875 14.441406 -9.765625 14.453125 -9.890625 L 14.375 -9.890625 L 11.671875 0 L 8 0 L 5.28125 -9.875 L 5.203125 -9.875 C 5.210938 -9.75 5.25 -9.453125 5.3125 -8.984375 C 5.382812 -8.523438 5.445312 -7.953125 5.5 -7.265625 C 5.550781 -6.585938 5.578125 -5.921875 5.578125 -5.265625 L 5.578125 0 L 1.28125 0 L 1.28125 -14.609375 L 7.90625 -14.609375 L 10.109375 -6.171875 L 10.1875 -6.171875 L 12.375 -14.609375 L 18.765625 -14.609375 L 18.765625 0 Z M 14.125 0 "/></g></g><g style="fill:#000000;fill-opacity:1;"><g transform="translate(87.441698, 18.230294)"><path style="stroke:none" d="M 8.828125 -14.859375 C 11.347656 -14.859375 13.296875 -14.210938 14.671875 -12.921875 C 16.046875 -11.640625 16.734375 -9.765625 16.734375 -7.296875 C 16.734375 -4.835938 16.046875 -2.960938 14.671875 -1.671875 C 13.296875 -0.390625 11.347656 0.25 8.828125 0.25 C 6.304688 0.25 4.363281 -0.390625 3 -1.671875 C 1.632812 -2.953125 0.953125 -4.828125 0.953125 -7.296875 C 0.953125 -9.773438 1.632812 -11.65625 3 -12.9375 C 4.363281 -14.21875 6.304688 -14.859375 8.828125 -14.859375 Z M 8.828125 -11.359375 C 7.828125 -11.359375 7.0625 -11.050781 6.53125 -10.4375 C 6.007812 -9.832031 5.75 -9.015625 5.75 -7.984375 L 5.75 -6.625 C 5.75 -5.59375 6.007812 -4.769531 6.53125 -4.15625 C 7.0625 -3.550781 7.828125 -3.25 8.828125 -3.25 C 9.835938 -3.25 10.609375 -3.550781 11.140625 -4.15625 C 11.671875 -4.769531 11.9375 -5.59375 11.9375 -6.625 L 11.9375 -7.984375 C 11.9375 -9.015625 11.671875 -9.832031 11.140625 -10.4375 C 10.609375 -11.050781 9.835938 -11.359375 8.828125 -11.359375 Z M 8.828125 -11.359375 "/></g></g><g style="fill:#000000;fill-opacity:1;"><g transform="translate(104.250634, 18.230294)"><path style="stroke:none" d="M 12.015625 0 L 5.875 -7.09375 L 5.875 0 L 1.578125 0 L 1.578125 -14.609375 L 5.671875 -14.609375 L 11.8125 -7.40625 L 11.8125 -14.609375 L 16.109375 -14.609375 L 16.109375 0 Z M 12.015625 0 "/></g></g><g style="fill:#000000;fill-opacity:1;"><g transform="translate(121.05957, 18.230294)"><path style="stroke:none" d="M 9.984375 -10.875 L 9.984375 0 L 5.28125 0 L 5.28125 -10.875 L 0.484375 -10.875 L 0.484375 -14.609375 L 14.765625 -14.609375 L 14.765625 -10.875 Z M 9.984375 -10.875 "/></g></g><g style="fill:#000000;fill-opacity:1;"><g transform="translate(135.512663, 18.230294)"><path style="stroke:none" d="M 11.359375 0 L 10.75 -2.0625 L 5.625 -2.0625 L 5.015625 0 L 0.21875 0 L 5.546875 -14.609375 L 11 -14.609375 L 16.328125 0 Z M 6.609375 -5.328125 L 9.765625 -5.328125 L 8.234375 -10.53125 L 8.15625 -10.53125 Z M 6.609375 -5.328125 "/></g></g><g style="fill:#000000;fill-opacity:1;"><g transform="translate(151.154289, 18.230294)"><path style="stroke:none" d="M 12.59375 -5.078125 C 12.59375 -3.242188 12.070312 -1.894531 11.03125 -1.03125 C 9.988281 -0.175781 8.492188 0.25 6.546875 0.25 C 4.585938 0.25 3.085938 -0.175781 2.046875 -1.03125 C 1.003906 -1.894531 0.484375 -3.242188 0.484375 -5.078125 L 0.484375 -5.265625 L 4.890625 -5.265625 L 4.890625 -5.09375 C 4.890625 -4.425781 5.007812 -3.953125 5.25 -3.671875 C 5.5 -3.390625 5.878906 -3.25 6.390625 -3.25 C 6.898438 -3.25 7.28125 -3.390625 7.53125 -3.671875 C 7.78125 -3.953125 7.90625 -4.425781 7.90625 -5.09375 L 7.90625 -14.609375 L 12.59375 -14.609375 Z M 12.59375 -5.078125 "/></g></g><g style="fill:#000000;fill-opacity:1;"><g transform="translate(164.440071, 18.230294)"><path style="stroke:none" d="M 1.578125 -14.609375 L 14.203125 -14.609375 L 14.203125 -11.109375 L 6.265625 -11.109375 L 6.265625 -9.09375 L 13.0625 -9.09375 L 13.0625 -5.734375 L 6.265625 -5.734375 L 6.265625 -3.5 L 14.359375 -3.5 L 14.359375 0 L 1.578125 0 Z M 1.578125 -14.609375 "/></g></g><g style="fill:#000000;fill-opacity:1;"><g transform="translate(178.893163, 18.230294)"><path style="stroke:none" d="M 7.703125 -14.859375 C 9.578125 -14.859375 11.113281 -14.476562 12.3125 -13.71875 C 13.519531 -12.96875 14.132812 -11.847656 14.15625 -10.359375 L 14.15625 -10.109375 L 9.765625 -10.109375 L 9.765625 -10.1875 C 9.765625 -10.613281 9.609375 -10.96875 9.296875 -11.25 C 8.984375 -11.53125 8.507812 -11.671875 7.875 -11.671875 C 7.25 -11.671875 6.769531 -11.578125 6.4375 -11.390625 C 6.113281 -11.210938 5.953125 -10.988281 5.953125 -10.71875 C 5.953125 -10.34375 6.175781 -10.0625 6.625 -9.875 C 7.070312 -9.6875 7.800781 -9.492188 8.8125 -9.296875 C 9.988281 -9.054688 10.953125 -8.804688 11.703125 -8.546875 C 12.460938 -8.285156 13.125 -7.859375 13.6875 -7.265625 C 14.257812 -6.671875 14.550781 -5.863281 14.5625 -4.84375 C 14.5625 -3.113281 13.976562 -1.832031 12.8125 -1 C 11.644531 -0.164062 10.082031 0.25 8.125 0.25 C 5.851562 0.25 4.082031 -0.128906 2.8125 -0.890625 C 1.539062 -1.648438 0.90625 -3.003906 0.90625 -4.953125 L 5.34375 -4.953125 C 5.34375 -4.210938 5.535156 -3.71875 5.921875 -3.46875 C 6.304688 -3.21875 6.898438 -3.09375 7.703125 -3.09375 C 8.296875 -3.09375 8.785156 -3.15625 9.171875 -3.28125 C 9.566406 -3.414062 9.765625 -3.679688 9.765625 -4.078125 C 9.765625 -4.429688 9.546875 -4.695312 9.109375 -4.875 C 8.679688 -5.050781 7.976562 -5.238281 7 -5.4375 C 5.8125 -5.6875 4.828125 -5.945312 4.046875 -6.21875 C 3.273438 -6.5 2.597656 -6.957031 2.015625 -7.59375 C 1.429688 -8.238281 1.140625 -9.101562 1.140625 -10.1875 C 1.140625 -11.789062 1.757812 -12.96875 3 -13.71875 C 4.238281 -14.476562 5.804688 -14.859375 7.703125 -14.859375 Z M 7.703125 -14.859375 "/></g></g><g style="fill:#000000;fill-opacity:1;"><g transform="translate(193.346256, 18.230294)"><path style="stroke:none" d=""/></g></g><g style="fill:#000000;fill-opacity:1;"><g transform="translate(199.543269, 18.230294)"><path style="stroke:none" d="M 1.578125 -14.609375 L 13.375 -14.609375 L 13.375 -11.109375 L 6.265625 -11.109375 L 6.265625 -8.59375 L 12.375 -8.59375 L 12.375 -5.25 L 6.265625 -5.25 L 6.265625 0 L 1.578125 0 Z M 1.578125 -14.609375 "/></g></g><g style="fill:#000000;fill-opacity:1;"><g transform="translate(212.829059, 18.230294)"><path style="stroke:none" d="M 8.53125 -14.859375 C 10.695312 -14.859375 12.410156 -14.316406 13.671875 -13.234375 C 14.929688 -12.148438 15.5625 -10.601562 15.5625 -8.59375 L 11.078125 -8.59375 C 11.078125 -9.445312 10.851562 -10.117188 10.40625 -10.609375 C 9.96875 -11.109375 9.335938 -11.359375 8.515625 -11.359375 C 7.566406 -11.359375 6.867188 -11.0625 6.421875 -10.46875 C 5.972656 -9.875 5.75 -9.046875 5.75 -7.984375 L 5.75 -6.625 C 5.75 -5.570312 5.972656 -4.742188 6.421875 -4.140625 C 6.867188 -3.546875 7.550781 -3.25 8.46875 -3.25 C 9.375 -3.25 10.0625 -3.484375 10.53125 -3.953125 C 11 -4.421875 11.234375 -5.078125 11.234375 -5.921875 L 15.5625 -5.921875 C 15.5625 -3.929688 14.945312 -2.40625 13.71875 -1.34375 C 12.5 -0.28125 10.769531 0.25 8.53125 0.25 C 6.039062 0.25 4.15625 -0.382812 2.875 -1.65625 C 1.59375 -2.925781 0.953125 -4.804688 0.953125 -7.296875 C 0.953125 -9.796875 1.59375 -11.679688 2.875 -12.953125 C 4.15625 -14.222656 6.039062 -14.859375 8.53125 -14.859375 Z M 8.53125 -14.859375 "/></g></g></g></svg>